<?xml version="1.0" standalone="no"?>
<!DOCTYPE svg PUBLIC "-//W3C//DTD SVG 1.1//EN" "http://www.w3.org/Graphics/SVG/1.1/DTD/svg11.dtd" >
<svg xmlns="http://www.w3.org/2000/svg">
<metadata>
Created by FontForge 20120731 at Fri Mar 10 09:19:22 2017
 By admin
</metadata>
<defs>
<font id="pingan" horiz-adv-x="1024" >
  <font-face 
    font-family="pingan"
    font-weight="500"
    font-stretch="normal"
    units-per-em="1024"
    panose-1="2 0 6 3 0 0 0 0 0 0"
    ascent="896"
    descent="-128"
    x-height="792"
    bbox="44 -128 963 896"
    underline-thickness="0"
    underline-position="0"
    unicode-range="U+0078-E689"
  />
<missing-glyph 
 />
    <glyph glyph-name=".notdef" 
 />
    <glyph glyph-name=".notdef" 
 />
    <glyph glyph-name=".null" horiz-adv-x="0" 
 />
    <glyph glyph-name="nonmarkingreturn" horiz-adv-x="341" 
 />
    <glyph glyph-name="x" unicode="x" horiz-adv-x="1001" 
d="M281 543q-27 -1 -53 -1h-83q-18 0 -36.5 -6t-32.5 -18.5t-23 -32t-9 -45.5v-76h912v41q0 16 -0.5 30t-0.5 18q0 13 -5 29t-17 29.5t-31.5 22.5t-49.5 9h-133v-97h-438v97zM955 310v-52q0 -23 0.5 -52t0.5 -58t-10.5 -47.5t-26 -30t-33 -16t-31.5 -4.5q-14 -1 -29.5 -0.5
t-29.5 0.5h-32l-45 128h-439l-44 -128h-29h-34q-20 0 -45 1q-25 0 -41 9.5t-25.5 23t-13.5 29.5t-4 30v167h911zM163 247q-12 0 -21 -8.5t-9 -21.5t9 -21.5t21 -8.5q13 0 22 8.5t9 21.5t-9 21.5t-22 8.5zM316 123q-8 -26 -14 -48q-5 -19 -10.5 -37t-7.5 -25t-3 -15t1 -14.5
t9.5 -10.5t21.5 -4h37h67h81h80h64h36q23 0 34 12t2 38q-5 13 -9.5 30.5t-9.5 34.5q-5 19 -11 39h-368zM336 498v228q0 11 2.5 23t10 21.5t20.5 15.5t34 6h188q31 0 51.5 -14.5t20.5 -52.5v-227h-327z" />
    <glyph glyph-name="flag" unicode="&#xe612;" 
d="M821 379q-1 2 -11.5 20t-14.5 27t-11 28t-8.5 39.5t0.5 43.5q2 20 8.5 47.5t12.5 50t11 43.5t4 32.5t-9 10.5q-18 -2 -82 -14.5t-85 -13.5q-33 -1 -60 5.5t-62 19.5t-59 19q-33 8 -125 48v8q0 19 -13.5 32.5t-33 13.5t-33.5 -13.5t-14 -32.5v-801q0 -19 14 -32.5
t33.5 -13.5t33 13.5t13.5 32.5v425q73 12 81 11q45 -6 177.5 -38t177.5 -37q28 -3 46.5 3t8.5 23z" />
    <glyph glyph-name="cross" unicode="&#xe60e;" 
d="M763 678l-251 -251l-252 251q-10 11 -24.5 11t-24.5 -10.5t-10 -25t10 -24.5l252 -251l-252 -252q-10 -10 -10 -24.5t10 -24.5t24.5 -10t24.5 10l252 252l252 -252q10 -10 24 -10t24.5 10t10.5 24.5t-10 24.5l-252 252l252 251q10 10 10 24.5t-10.5 25t-24.5 10.5
t-25 -11z" />
    <glyph glyph-name="gear" unicode="&#xe620;" 
d="M644 -21v0q-25 0 -41 18q-16 17 -42.5 35t-48.5 18q-23 0 -49.5 -18t-41.5 -34q-16 -18 -41 -18q-11 0 -21 5h-1l-107 60l-1 1q-14 10 -19 27.5t2 33.5q10 23 10 43q0 47 -33 80t-80 33h-4v0q-14 0 -24 11t-13 30q-10 48 -10 85t10 85q3 19 13.5 30t23.5 10h4
q47 0 80 33.5t33 79.5q0 21 -10 44q-7 16 -2 33.5t19 27.5l2 1l112 62h1q10 4 21 4q25 0 41 -16q15 -17 41 -34t48 -17t47.5 17t41.5 33t40 16q12 0 21 -4l2 -1l108 -60l1 -1q15 -10 20 -27.5t-2 -33.5q-10 -23 -10 -44q0 -46 33 -79.5t80 -33.5h3q14 1 24.5 -10t13.5 -30
q9 -48 9 -85t-9 -85q-3 -19 -13.5 -30t-24.5 -11h-3q-47 0 -80 -33t-33 -80q0 -20 10 -43q7 -16 2 -33.5t-20 -27.5l-1 -1l-110 -61l-1 -1q-10 -4 -21 -4v0zM641 31q1 -1 3 -1v0l103 57q-13 33 -13 63q0 66 45 113.5t110 50.5q8 45 8 75t-8 75q-65 3 -110 50.5t-45 112.5
q0 31 13 64l-101 56h-1q-2 0 -3 -1q-16 -16 -38 -32q-47 -33 -88 -33t-89 34q-21 16 -37 32q-2 1 -4 1h-1l-105 -57q14 -33 14 -64q0 -65 -45 -112.5t-110 -50.5q-8 -45 -8 -75t8 -75q65 -3 110 -50.5t45 -113.5q0 -30 -14 -63l100 -55v0h3q16 18 38 34q49 35 91 35t90 -36
q23 -16 39 -34zM512 239q-62 0 -106 44t-44 106.5t44 106.5t106 44t106 -44t44 -106.5t-44 -106.5t-106 -44zM512 489q-41 0 -70 -29t-29 -70.5t29 -70.5t70 -29t70 29t29 70.5t-29 70.5t-70 29z" />
    <glyph glyph-name="ellipses" unicode="&#xe60d;" 
d="M747 384q0 -39 27.5 -66.5t66 -27.5t66 27.5t27.5 66.5t-27.5 66.5t-66 27.5t-66 -27.5t-27.5 -66.5zM90 384q0 -39 27.5 -66.5t66 -27.5t66 27.5t27.5 66.5t-27.5 66.5t-66 27.5t-66 -27.5t-27.5 -66.5zM418 384q0 -39 27.5 -66.5t66.5 -27.5t66.5 27.5t27.5 66.5
t-27.5 66.5t-66.5 27.5t-66.5 -27.5t-27.5 -66.5z" />
    <glyph glyph-name="plane" unicode="&#xe610;" 
d="M951.5 793q-4.5 4 -9.5 1l-873 -447q-5 -2 -4.5 -8t5.5 -8l293 -93q5 -2 8 2l405 364l-323 -382q-3 -4 -1.5 -8.5t5.5 -5.5l324 -99q2 -1 3 -1q2 0 5 2q3 1 4 5l162 669q1 5 -3.5 9zM552 137l-90 27q-4 2 -7.5 -1t-3.5 -7v-170q0 -6 6 -8q2 -1 3 -1q5 0 7 5l90 141
q2 4 0.5 8t-5.5 6z" />
    <glyph glyph-name="angle-left" unicode="&#xe614;" 
d="M337 368l325 325q10 10 10 23t-9.5 22.5t-23 9.5t-22.5 -9l-345 -345q-2 -1 -3 -3q-9 -9 -9 -22.5t9 -22.5l347 -347q9 -10 22.5 -10t23 9.5t9.5 23t-9 22.5z" />
    <glyph glyph-name="calendar" unicode="&#xe600;" 
d="M395 604h232v-41h-232v41zM856 604h-136v-41h136q9 0 9 -9v-603q0 -9 -9 -9h-688q-9 0 -9 9v603q0 9 9 9h135v41h-135q-21 0 -35.5 -14.5t-14.5 -35.5v-603q0 -21 14.5 -35.5t35.5 -14.5h688q21 0 35.5 14.5t14.5 35.5v603q0 21 -14.5 35.5t-35.5 14.5zM280 399h104v-76
h-104v76zM460 399h104v-76h-104v76zM639 399h105v-76h-105v76zM283 272h104v-75h-104v75zM463 272h104v-75h-104v75zM642 272h105v-75h-105v75zM283 146h104v-76h-104v76zM463 146h104v-76h-104v76zM642 146h105v-76h-105v76zM384 528q0 -12 -8.5 -20.5t-20.5 -8.5h-12
q-12 0 -20.5 8.5t-8.5 20.5v118q0 12 8.5 20.5t20.5 8.5h12q12 0 20.5 -8.5t8.5 -20.5v-118zM708 528q0 -12 -8.5 -20.5t-20.5 -8.5h-11q-12 0 -20.5 8.5t-8.5 20.5v118q0 12 8.5 20.5t20.5 8.5h11q12 0 20.5 -8.5t8.5 -20.5v-118z" />
    <glyph glyph-name="share" unicode="&#xe606;" 
d="M804 356q65 0 111 46t46 110.5t-46 110.5t-111.5 46t-111.5 -46t-46 -111q0 -13 3 -27l-259 -188q-38 38 -93 38q-53 0 -91 -37.5t-38 -91t38 -91.5t91 -38q66 0 105 53l225 -100q1 -49 36 -83.5t84 -34.5q50 0 85.5 35t35.5 84.5t-35.5 85t-85.5 35.5q-40 0 -72 -24
t-43 -61l-213 95q8 22 8 44q0 33 -16 62l249 180q19 -41 57.5 -66.5t86.5 -25.5zM747 116q35 0 59.5 -24.5t24.5 -59.5t-24.5 -59.5t-59.5 -24.5t-59.5 24.5t-24.5 59.5t24.5 59.5t59.5 24.5zM297.5 113q-38.5 0 -66 27.5t-27.5 66t27.5 65.5t66 27t66 -27t27.5 -65.5
t-27.5 -66t-66 -27.5zM803.5 633q50.5 0 86 -35.5t35.5 -85.5t-35.5 -85t-86 -35t-86 35t-35.5 85t35.5 85.5t86 35.5z" />
    <glyph glyph-name="check" unicode="&#xe607;" 
d="M901 576q6 6 0 12l-83 84q-6 6 -12 0l-386 -385q-6 -7 -12 0l-190 189q-6 6 -12 0l-83 -83q-6 -6 0 -12l284 -285q6 -6 6.5 -5.5t1 0t6.5 5.5z" />
    <glyph glyph-name="lightning" unicode="&#xe608;" 
d="M329 770h302l-62 -238l179 -6l-408 -528l44 335h-108z" />
    <glyph glyph-name="arrow-up" unicode="&#xe609;" 
d="M809 467q-3 8 -9 14l-293 283q-6 6 -12 0l-271 -283q-6 -6 -9 -15q-3 -7 3 -13q5 -4 11 -4h4q7 4 13 11l234 244q6 6 6 -3v-696q0 -8 8 -8h14q8 0 8 8v699q0 8 7 2l255 -247q7 -6 15 -9q7 -3 13 3q3 3 3.5 6.5t0.5 5.5z" />
    <glyph glyph-name="plus" unicode="&#xe617;" 
d="M898 448h-322v322h-128v-322h-322v-128h322v-322h128v322h322v128z" />
    <glyph glyph-name="minus" unicode="&#xe618;" 
d="M142 369h771v-128h-771v128z" />
    <glyph glyph-name="clock" unicode="&#xe601;" 
d="M512 778q-108 0 -198.5 -52.5t-143 -143t-52.5 -198.5t52.5 -198.5t143 -143t198.5 -52.5t198.5 52.5t143 143t52.5 198.5t-52.5 198.5t-143 143t-198.5 52.5zM512 46q-91 0 -169 45.5t-123.5 123.5t-45.5 169t45.5 169t123.5 123.5t169 45.5t169 -45.5t123.5 -123.5
t45.5 -169t-45.5 -169t-123.5 -123.5t-169 -45.5zM653 384h-141v197q0 13 -7.5 20.5t-20.5 7.5v0q-28 -9 -28 -28v-225q0 -13 7.5 -20.5t20.5 -7.5v0h6h163q12 0 20 7.5t8 20.5v0q0 9 -8.5 18.5t-19.5 9.5z" />
    <glyph glyph-name="check-hand-written" unicode="&#xe611;" 
d="M331 414l111 -222q4 10 11 26.5t31.5 66t51.5 97.5t69.5 111t86.5 115.5t101.5 103t115.5 81.5q-1 -23 -7 -76t-7.5 -81t5 -72.5t23.5 -85.5q-59 -13 -156.5 -107.5t-182 -206t-128.5 -193.5q-87 111 -184 192t-171 108z" />
    <glyph glyph-name="indicator" unicode="&#xe613;" 
d="M172 796h680v-589l-337 -235l-343 235v589z" />
    <glyph glyph-name="bell-solid" unicode="&#xe60b;" 
d="M512 329q-45 0 -77.5 -16t-32.5 -39t32.5 -39t77.5 -16t77.5 16t32.5 39t-32.5 39t-77.5 16zM512 246q-20 0 -35 13t-19 32q24 10 54 10t54 -10q-4 -19 -19 -32t-35 -13zM462 486q1 1 2.5 2l1.5 1q0 4 -4 -3zM512 822q-89 0 -170.5 -34.5t-140 -93t-93 -140t-34.5 -170.5
t34.5 -170.5t93 -140t140 -93t170.5 -34.5t170.5 34.5t140 93t93 140t34.5 170.5t-34.5 170.5t-93 140t-140 93t-170.5 34.5zM512 165q-77 0 -132 27.5t-55 66.5q0 26 34 52v73q0 48 25 87t67 57q-1 6 -1 13q0 25 18 43.5t44 18.5t44 -18.5t18 -43.5q0 -7 -1 -13
q42 -18 68 -57t26 -87v-73q32 -25 32 -52q0 -39 -55 -66.5t-132 -27.5zM461 349q-15 22 -16 53t5 51.5t12 32.5q-19 -14 -32 -35.5t-17 -42t-5 -39t0 -29.5l1 -12q3 3 8 7.5t18.5 11t25.5 2.5z" />
    <glyph glyph-name="check-solid" unicode="&#xe60a;" 
d="M512 769q-105 0 -193.5 -51.5t-140 -140t-51.5 -193.5t51.5 -193.5t140 -140t193.5 -51.5t193.5 51.5t140 140t51.5 193.5t-51.5 193.5t-140 140t-193.5 51.5zM696 471l-224 -225q-9 -8 -17 0l-33 34q-3 2 -9 8t-8 9l-77 81q-4 4 -4 9q0 4 4 8l34 30q3 4 8 4t8 -4l77 -78
q8 -8 17 0l174 175q9 8 17 0l33 -34q9 -8 0 -17z" />
    <glyph glyph-name="check-bold" unicode="&#xe602;" 
d="M896 566l-468 -469q-8 -7 -18 -7t-17 7l-69 70l-17.5 17.5l-17.5 17.5l-161 169q-7 8 -7 18t7 17l70 64q8 7 18 7t17 -7l160 -163q7 -7 17 -7t18 7l364 364q8 7 18 7t17 -7l69 -70q7 -7 7 -17.5t-7 -17.5z" />
    <glyph glyph-name="bell" unicode="&#xe603;" 
d="M512 -5q-91 0 -168 22.5t-122 61t-45 83.5q0 46 60 92v130q0 86 45 155t121 100q-3 12 -3 23q0 46 33 78.5t79 32.5t79 -32.5t33 -78.5q0 -12 -3 -23q76 -32 122 -101t46 -154v-130q58 -44 58 -92q0 -45 -45 -83.5t-122 -61t-168 -22.5zM411 591q-109 -78 -112 -255
q-1 -38 4 -65q1 1 2.5 3t8.5 8t13.5 10.5t16.5 11t19.5 8.5t21.5 4t23 -2q-23 34 -30 78t-0.5 84t15.5 69t18 46q1 0 3.5 2.5t4.5 3.5q0 8 -8 -6zM512 273q-92 0 -157.5 -32.5t-65.5 -78.5t65.5 -78.5t157.5 -32.5t157.5 32.5t65.5 78.5t-65.5 78.5t-157.5 32.5zM512 106
q-41 0 -71.5 26t-38.5 65q48 20 110 20t110 -20q-8 -39 -38.5 -65t-71.5 -26z" />
    <glyph glyph-name="lightning-solid" unicode="&#xe604;" 
d="M512 769q-105 0 -193.5 -51.5t-140 -140t-51.5 -193.5t51.5 -193.5t140 -140t193.5 -51.5t193.5 51.5t140 140t51.5 193.5t-51.5 193.5t-140 140t-193.5 51.5zM434 122l27 202h-66l32 264h183l-37 -144l108 -3z" />
    <glyph glyph-name="i-hollow" unicode="&#xe605;" 
d="M509 -3q-100 0 -185 49.5t-134.5 134.5t-49.5 185t49.5 185.5t134.5 135t185 49.5t185.5 -49.5t135 -135t49.5 -185.5t-49.5 -185t-135 -134.5t-185.5 -49.5zM509 687q-87 0 -161 -43t-116.5 -117t-42.5 -161t42.5 -161t116.5 -116.5t161 -42.5t161 42.5t117 116.5
t43 161t-43 161t-117 117t-161 43zM474 543q0 -15 10 -25.5t25 -10.5t25.5 10.5t10.5 25.5t-10.5 25.5t-25.5 10.5t-25 -10.5t-10 -25.5zM541 188q0 -14 -9.5 -24t-22.5 -10t-22.5 10t-9.5 24v232q0 14 9.5 24t22.5 10t22.5 -10t9.5 -24v-232z" />
    <glyph glyph-name="hourglass-solid" unicode="&#xe60c;" 
d="M512 769q-105 0 -193.5 -51.5t-140 -140t-51.5 -193.5t51.5 -193.5t140 -140t193.5 -51.5t193.5 51.5t140 140t51.5 193.5t-51.5 193.5t-140 140t-193.5 51.5zM641 270v-30h21q6 0 10 -4t4 -10t-4 -10t-10 -4h-300q-6 0 -10 4t-4 10t4 10t10 4h23v30q0 31 27 60t63 50
q-36 21 -63 50t-27 60v38h-23q-6 0 -10 4t-4 10t4 10t10 4h300q6 0 10 -4t4 -10t-4 -10t-10 -4h-21v-38q0 -31 -27 -60t-63 -50q36 -21 63 -50t27 -60z" />
    <glyph glyph-name="eye" unicode="&#xe689;" 
d="M893 387q0 -28 -29 -67t-77 -75.5t-122.5 -62t-153.5 -25.5q-77 0 -151 25t-122.5 61.5t-78 75.5t-29.5 68t29.5 68t78.5 75.5t122.5 61.5t150.5 25q80 0 154 -25t122 -61.5t77 -75t29 -68.5v0zM511 575q-76 0 -129.5 -55t-53.5 -133t53.5 -133t130 -55t130 55t53.5 133
t-53.5 133t-130.5 55v0zM511 507q-48 0 -82.5 -35t-34.5 -84.5t34.5 -84.5t83 -35t82.5 35t34 84.5t-34 84.5t-83 35v0zM511 507z" />
    <glyph glyph-name="cash-hollow" unicode="&#xe61b;" 
d="M657 308v-18l-65 -38h-193v-52h214l119 74h64l-195 -142h-213l-92 24l-85 1v119h94l76 32h276zM676 327h-299l-76 -32h-109v-157l101 -2l92 -23h222l225 163v17h-106l-118 -73h-190v13h180l78 47v47zM371 325q-47 53 -47 123q0 78 55 133t133 55t133 -55t55 -133
q0 -68 -44 -121h20v-5q43 55 43 126q0 86 -60.5 146.5t-146.5 60.5t-146.5 -60.5t-60.5 -146.5q0 -74 47 -131zM581 541l-48 -82h38v-18h-44v-25h44v-19h-44v-36h-23v36h-46v19h46v25h-46v18h39l-48 82h26q34 -61 41 -78v0q3 7 14 27l27 51h24zM512 -51q-88 0 -169 34.5
t-139 92.5t-92.5 139t-34.5 169t34.5 169t92.5 139t139 92.5t169 34.5t169 -34.5t139 -92.5t92.5 -139t34.5 -169t-34.5 -169t-92.5 -139t-139 -92.5t-169 -34.5zM512 801q-113 0 -209.5 -55.5t-152 -152t-55.5 -209.5t55.5 -209.5t152 -152t209.5 -55.5t209 55.5t152 152
t56 209.5t-56 209.5t-152 152t-209 55.5z" />
    <glyph glyph-name="check-hollow" unicode="&#xe61c;" 
d="M496.5 830q-88.5 0 -169 -34.5t-139 -92.5t-93 -138.5t-34.5 -169t34.5 -169t93 -139t139 -93t169 -34.5t169 34.5t139 93t93 139t34.5 169t-34.5 169t-93 138.5t-139 92.5t-169 34.5zM496.5 -22q-113.5 0 -209.5 56t-152 152t-56 209t56 209.5t152 152.5t209.5 56
t209.5 -56t152 -152.5t56 -209.5t-56 -209t-152 -152t-209.5 -56zM734.5 550q5.5 -5 5.5 -12.5t-5 -12.5l-277 -277q-13 -13 -31 -13v0q-17 0 -30 13l-139 139q-5 5 -5 12t5.5 12.5t12.5 5.5t13 -5l138 -139q2 -2 5 -2v0q3 0 6 2l276 277q6 5 13 5t12.5 -5z" />
    <glyph glyph-name="start-hollow" unicode="&#xe61d;" 
d="M512 819q-88 0 -169 -34.5t-139 -92.5t-92.5 -139t-34.5 -169t34.5 -169t92.5 -139t139 -92.5t169 -34.5t169 34.5t139 92.5t92.5 139t34.5 169t-34.5 169t-92.5 139t-139 92.5t-169 34.5zM512 -33q-113 0 -209.5 55.5t-152 152t-55.5 209.5t55.5 209.5t152 152
t209.5 55.5t209 -55.5t152 -152t56 -209.5t-56 -209.5t-152 -152t-209 -55.5zM475 270l-25 -27l-45 45q-31 -45 -81 -84q-8 13 -19 27q48 35 77 79q-30 28 -60 53q15 56 27 126h-43v31h48q7 42 13 88l34 -5q-7 -44 -14 -83h78v-31q-10 -112 -42 -171q28 -25 52 -48zM433 489
h-51q-14 -69 -27 -115q23 -18 44 -35q28 58 34 150zM647 554q42 -67 73 -130l-33 -16q-8 20 -18 40q-66 -4 -157 -13q-12 -1 -30 -7l-15 30q15 9 25 24q34 50 68 129l35 -11q-38 -73 -75 -132q83 5 135 8q-17 33 -35 65zM488 388h200v-187h-31v29h-137v-30h-32v188zM657 359
h-137v-101h137v101z" />
    <glyph glyph-name="flag-hollow" unicode="&#xe61e;" 
d="M512 -51q-88 0 -169 34.5t-139 92.5t-92.5 139t-34.5 169t34.5 169t92.5 139t139 92.5t169 34.5t169 -34.5t139 -92.5t92.5 -139t34.5 -169t-34.5 -169t-92.5 -139t-139 -92.5t-169 -34.5zM512 801q-113 0 -209.5 -55.5t-152 -152t-55.5 -209.5t55.5 -209.5t152 -152
t209.5 -55.5t209 55.5t152 152t56 209.5t-56 209.5t-152 152t-209 55.5zM457 67h-3q-19 0 -32.5 13.5t-13.5 32.5v532q0 19 13.5 32.5t32.5 13.5q21 0 35 -13t14 -33v-532q0 -19 -13.5 -32.5t-32.5 -13.5zM457 663q-9 0 -14.5 -5t-5.5 -13v-532q0 -7 5 -12t12 -5h3q7 0 12 5
t5 12v532q0 8 -5 13t-12 5zM548 342q-6 0 -12 3q-20 8 -20 29v248q0 21 20 29q18 8 33 -5l231 -125q10 -10 10 -23t-10 -22l-3 -3l-228 -123q-9 -8 -21 -8zM548 625h-1q-2 -1 -2 -3v-248q0 -2 2 -3t4 1l3 2l227 123v1l-230 126q-1 1 -3 1z" />
    <glyph glyph-name="angle-left-light" unicode="&#xe615;" 
d="M686 14q-5 0 -8 3l-348 356q-11 11 0 22l348 356q9 8 17.5 -0.5t-0.5 -16.5l-343 -350l343 -350q8 -8 0 -17q-4 -3 -9 -3v0z" />
    <glyph glyph-name="cross-light" unicode="&#xe616;" 
d="M526 384l283 288q7 7 0 14t-14 0l-283 -288l-283 288q-7 7 -14 0t0 -14l283 -288l-283 -288q-7 -7 1 -14q2 -3 6.5 -3t6.5 3l283 288l283 -288q2 -3 6.5 -3t6.5 3q7 7 1 14z" />
    <glyph glyph-name="angle-right-bold" unicode="&#xe61a;" 
d="M710 351v0.5v1.5q9 28 -13 48l-307 279q-15 13 -34 12t-32 -15.5t-12 -33.5t15 -32l267 -243l-264 -209q-15 -12 -17 -31t10 -34v0q11 -15 30.5 -17.5t34.5 9.5l307 243q10 8 15 21v1v0z" />
    <glyph glyph-name="magnifier" unicode="&#xe619;" 
d="M860 73l-131 132q90 93 90 221q0 131 -93 224t-224 93t-224 -93t-93 -224q0 -86 42.5 -159t115.5 -115.5t159 -42.5q106 0 190 64l133 -134q7 -8 17 -8t17.5 7.5t7.5 17.5t-7 17zM234 426q0 111 78.5 189.5t189.5 78.5t189.5 -78.5t78.5 -189.5t-78.5 -189.5
t-189.5 -78.5t-189.5 78.5t-78.5 189.5z" />
    <glyph glyph-name="eye-closed" unicode="&#xe630;" 
d="M511 258q48 0 82.5 35t34.5 84q0 11 -1 20l-180 -120q29 -19 64 -19zM511 497q-48 0 -82.5 -35t-34.5 -85q0 -12 2 -21l181 120q-29 21 -66 21zM799 511l-113 -75q9 -28 9 -59q0 -78 -53.5 -133t-130.5 -55q-71 0 -123 49l-73 -49q94 -42 196 -42q79 0 153 25.5t122.5 62
t77 75.5t28.5 67t-25 64.5t-68 69.5zM226 243l111 74q-10 30 -10 60q0 78 54 133t130 55q71 0 124 -49l74 49q-96 42 -199 42q-77 0 -150.5 -25t-122 -61.5t-78.5 -75.5t-30 -68q0 -27 26 -63.5t71 -70.5zM888 601l-727 -485q-6 -3 -11 -3q-9 0 -15 6t-6 15q0 12 9 18v0
l728 484q5 4 11 4q9 0 15 -6.5t6 -15.5q-1 -11 -10 -17v0z" />
    <glyph glyph-name="bean" unicode="&#xe61f;" 
d="M950 549q-10 40 -50 66.5t-91 26.5q-62 0 -120 -33v0q-33 -19 -70 -30q34 -17 34 -45q0 -39 -35 -67t-107 -28q-69 0 -105.5 28.5t-36.5 66.5q0 28 35 46q-35 10 -66 27v0v0l-0.5 0.5l-0.5 0.5q-1 0 -3.5 1.5t-3.5 2.5q-56 30 -115 30q-51 0 -91 -26.5t-50 -66.5
q-13 -40 -13 -82q0 -93 57 -170.5t160.5 -123.5t233.5 -47q130 1 233.5 47t160.5 123.5t57 170.5q0 42 -13 82zM512 470q36 0 59.5 15t23.5 37q0 6 -2 12q-5 14 -26 14q-12 0 -22 -5v0q-15 -7 -33 -7q-17 0 -32 7v0v0h-0.5h-0.5q-11 5 -21 5q-22 0 -26 -14q-3 -6 -3 -12
q0 -22 23.5 -37t59.5 -15z" />
    <glyph glyph-name="plus-light" unicode="&#xe621;" 
d="M898 424h-346v346h-80v-346h-346v-80h346v-346h80v346h346v80z" />
    <glyph glyph-name="minus-light" unicode="&#xe622;" 
d="M126 424h772v-80h-772v80z" />
    <glyph glyph-name="number-zero" unicode="&#xe623;" 
d="M351 372q0 102 45 162.5t117 60.5q73 0 117 -60q43 -59 45 -163q0 -100 -45 -164q-45 -62 -118 -62q-75 0 -119 64q-42 61 -42 162zM595 372q0 162 -82 162t-82 -162t82 -162t82 162z" />
    <glyph glyph-name="number-one" unicode="&#xe624;" 
d="M397 507q86 20 133 84h43v-432h-71v327q-36 -28 -105 -35v56z" />
    <glyph glyph-name="number-two" unicode="&#xe625;" 
d="M379 480q9 53 52 84q42 31 103 31q59 0 97 -35t38 -94q0 -71 -91 -137q-98 -69 -109 -109h211v-61h-306q7 65 47 114q39 48 117 104q59 44 59 87q0 28 -15 48q-16 20 -52 20q-65 0 -75 -64z" />
    <glyph glyph-name="number-three" unicode="&#xe626;" 
d="M598 391q36 -8 58 -41q21 -32 23 -66q0 -59 -41 -97q-41 -39 -106 -39t-112 34t-53 84l67 13q5 -29 31 -50.5t61 -21.5q36 0 60 20q22 21 22 51q0 31 -22 54q-24 22 -51 22q-25 0 -35 -3l6 56h8q36 0 55 20q19 22 19 45q0 30 -19 44t-44 14q-55 0 -72 -51l-68 11
q11 48 51 74q40 28 94 28q47 0 87 -30q39 -28 39 -85q-1 -62 -58 -86z" />
    <glyph glyph-name="number-five" unicode="&#xe627;" 
d="M435 284q3 -28 26 -46q23 -19 56 -19q36 0 60 25q22 25 22 65q0 41 -22 65q-23 25 -58 25q-49 0 -79 -35l-59 6l43 226h227v-61h-178l-21 -109q33 28 84 28q59 0 97 -41q39 -42 39 -102q0 -67 -45 -109q-48 -41 -116 -41q-53 0 -94 30q-43 32 -50 84z" />
    <glyph glyph-name="number-six" unicode="&#xe628;" 
d="M428 389q40 52 109 52q57 0 98 -39q39 -38 39 -103q0 -63 -42 -106t-110 -43q-77 0 -122 58q-44 58 -44 152q0 111 47 171q47 62 129 64q47 0 80 -23q34 -22 44 -59l-69 -10q-17 31 -60 31q-45 0 -71 -39q-28 -40 -28 -106zM440 298q0 -40 23 -65q21 -24 56 -24
q40 0 60 24q21 25 21 65q0 38 -20 63q-22 24 -58 24q-35 0 -58 -24q-24 -25 -24 -63z" />
    <glyph glyph-name="number-seven" unicode="&#xe629;" 
d="M373 522v62h296v-48q-54 -54 -88.5 -158.5t-34.5 -217.5h-74q0 109 34 212t77 150h-210z" />
    <glyph glyph-name="number-nine" unicode="&#xe62b;" 
d="M607 360q-40 -52 -107 -52q-61 0 -99 39q-37 38 -37 98q0 64 44 107t104 43q76 0 123 -57q45 -56 45 -154q0 -105 -47 -170q-48 -64 -131 -64q-45 0 -80 24t-44 57l69 11q17 -31 60 -31q46 0 74 41q26 42 26 108zM594 446q0 42 -21 66q-22 24 -57 24q-32 0 -55 -25
q-23 -24 -23 -65q0 -34 22 -57q21 -22 55 -22t56 22q23 24 23 57z" />
    <glyph glyph-name="percent" unicode="&#xe62c;" 
d="M260 486q0 52 29.5 84.5t76.5 32.5q50 0 78 -36q27 -34 27 -80q0 -43 -27 -79q-27 -35 -78 -35t-78 35q-28 32 -28 78zM324 486.5q0 -75.5 43 -75.5t43 75.5t-43 75.5t-43 -75.5zM366 142l238 460h65l-238 -460h-65zM775 258q0 -51 -29.5 -84t-75.5 -33q-52 0 -79 35
q-27 34 -27 81q0 51 31 83q30 32 76 32q44 0 74 -32q30 -30 30 -82zM712 257q0 76 -43 76t-43 -76t43 -76q43 2 43 76z" />
    <glyph glyph-name="point" unicode="&#xe62d;" 
d="M471 333v82h82v-82h-82z" />
    <glyph glyph-name="number-four" unicode="&#xe62f;" 
d="M549 169v95h-215v40l237 297h46v-280h67v-56h-67v-96h-68zM418 321h131v163z" />
    <glyph glyph-name="number-eight" unicode="&#xe62a;" 
d="M176 165q0 35 12 76q8 25 33 70q18 33 52 59q20 18 64 47q-39 25 -57 43q-28 24 -42 52q-16 25 -27 59q-10 27 -10 65q0 55 25 101q28 53 67 82q37 34 99 57q59 20 119 20q58 0 121 -20q51 -17 99 -57q41 -37 67 -82q25 -46 25 -101q0 -38 -10 -65q-15 -39 -27 -59
q-12 -18 -42 -52q-35 -30 -55 -43q31 -15 67 -47q30 -26 52 -59q21 -31 33 -70q12 -41 12 -76q0 -60 -27 -114q-26 -53 -72 -95q-41 -37 -107 -62q-59 -22 -131 -22q-70 0 -129 22q-54 21 -104 62q-56 39 -82 95q-25 49 -25 114v0zM283 165q0 -44 17 -82q20 -40 47 -67
q22 -22 72 -45q38 -17 86.5 -17t87.5 17q50 23 71 45q36 36 48 67q17 34 17 81.5t-17 81.5q-20 40 -48 67q-21 22 -71 45q-39 17 -87.5 17t-86.5 -17q-44 -20 -72 -45q-36 -35 -47 -67q-17 -47 -17 -81zM310 633q0 -37 15 -67q16 -32 42 -54q23 -20 62 -37q37 -15 77 -15
q43 0 77 15q32 12 64 37q26 22 42 54q15 30 15 67t-15 67q-16 32 -42 55q-32 27 -64 37q-38 15 -77.5 15t-76.5 -15q-35 -14 -62 -37q-26 -23 -42 -55q-15 -30 -15 -67z" />
    <glyph glyph-name="warning" unicode="&#xe652;" 
d="M512 769q-105 0 -193.5 -51.5t-140 -140t-51.5 -193.5t51.5 -193.5t140 -140t193.5 -51.5t193.5 51.5t140 140t51.5 193.5t-51.5 193.5t-140 140t-193.5 51.5zM496 604q0 7 4.5 11.5t11.5 4.5t11.5 -4.5t4.5 -11.5v-31q0 -7 -4.5 -11.5t-11.5 -4.5t-11.5 4.5t-4.5 11.5
v31zM314 392h-33q-7 0 -11.5 4.5t-4.5 11t4.5 11t11.5 4.5h33q7 0 12 -4.5t5 -11t-5 -11t-12 -4.5zM332 526q-5 4 -5 10.5t5 11.5q12 11 23 0l24 -22q4 -5 4 -11.5t-4 -11.5q-12 -11 -24 0zM528 148h-32q-7 0 -12 4.5t-5 11t5 11t12 4.5h32q7 0 12 -4.5t5 -11t-5 -11
t-12 -4.5zM561 195h-98q-7 0 -12 4.5t-5 11t5 11.5t12 5h98q7 0 12 -5t5 -11.5t-5 -11t-12 -4.5zM511.5 242q-61.5 0 -104.5 41.5t-43 100.5t43 100.5t104.5 41.5t105 -41.5t43.5 -100.5t-43.5 -100.5t-105 -41.5zM669 503q-12 -11 -23.5 0.5t-0.5 22.5l24 22q11 11 23 0
t0 -22zM743 392h-33q-7 0 -12 4.5t-5 11t5 11t12 4.5h33q7 0 11.5 -4.5t4.5 -11t-4.5 -11t-11.5 -4.5z" />
    <glyph glyph-name="hammer" unicode="&#xe653;" 
d="M920 457l-61 30l-62 -30l10 68l-48 49l68 12l32 60l32 -60l67 -12l-47 -49zM779 567l38 -39l-7 -54l49 24l49 -24l-8 54l38 39l-54 10l-25 48l-26 -48zM264 455l-50 42l-63 -12l25 59l-32 57l64 -5l44 48l15 -64l59 -26l-55 -34zM217 508l39 -33l6 51l43 26l-46 21
l-12 50l-35 -37l-51 4l26 -45l-20 -47zM109 187l-3 49l-40 28l46 18l14 47l31 -38l49 1l-26 -41l16 -47l-48 13zM87 262l29 -20l2 -36l28 22l35 -10l-12 34l19 30l-35 -1l-23 28l-10 -34zM501 603l30 34l166 -144l-30 -35zM330 402l30 35l165 -145l-30 -34zM912 164l-44 -11
l-237 163l-12 53l56 -4l230 -157zM392 479l76 87l165 -144l-76 -87zM250 176h312v-54h-312v54z" />
    <glyph glyph-name="angle-down" unicode="&#xe654;" 
d="M512 265l-302 302q-8 9 -20.5 9t-21.5 -9t-9 -21.5t9 -21.5l321 -320q4 -6 10 -9q2 -5 14 -3.5t20 9.5l323 323q9 9 9 21t-9 21t-21.5 9t-20.5 -9z" />
    <glyph glyph-name="angle-up" unicode="&#xe656;" 
d="M512 503l302 -302q8 -9 20.5 -9t21.5 9t9 21.5t-9 21.5l-321 320q-4 6 -10 9q-2 5 -14 3.5t-20 -9.5l-323 -323q-9 -9 -9 -21t9 -21t21.5 -9t20.5 9z" />
    <glyph glyph-name="quote" unicode="&#xe657;" 
d="M443 627q-190 -118 -202 -310q9 4 38 4q65 0 106 -38q41 -36 41 -101.5t-41 -106.5q-45 -38 -106 -38q-173 0 -173 234q0 318 272 460zM918 627q-188 -118 -202 -310q9 4 38 4q65 0 106 -38q41 -36 41 -101.5t-41 -106.5q-45 -38 -103 -38q-176 0 -176 234q0 315 274 460
z" />
    <glyph glyph-name="round-cross" unicode="&#xe65a;" 
d="M526.5 53q-93.5 0 -173 46.5t-126 126t-46.5 173t46.5 173t126 125.5t173 46t173 -46t125.5 -125.5t46 -173t-46 -173t-125.5 -126t-173 -46.5zM690 528q19 18 0.5 37t-37.5 0l-129 -129l-127 126q-19 19 -37.5 0.5t0.5 -37.5l129 -129l-127 -127q-18 -19 0.5 -37.5
t37.5 0.5l129 129l130 -129q18 -19 37 -0.5t0 37.5l-129 129zM690 528z" />
  </font>
</defs>
</svg>
